PathFileType	4	(X/Y/Z)	./resultDataOpenSim/trcMotMarkerGrf/sub10/qtm-05-03.trc
DataRate	CameraRate	NumFrames	NumMarkers	Units	OrigDataRate	OrigDataStartFrame	OrigNumFrames
250.000000	250.000000	11	24	m	250.000000	257	513
Frame#	Time	L.Toe.Tip			R.Toe.Tip			L.Ankle.Lat			R.Ankle.Lat			L.Ankle.Med			R.Ankle.Med			L.Heel			R.Heel			L.Knee.Lat			R.Knee.Lat			L.Knee.Med			R.Knee.Med			L.Thigh.Upper			R.Thigh.Upper			L.ASIS			R.ASIS			V.Sacral			L.Acromium			R.Acromium			C7			L.Elbow			R.Elbow			L.Wrist.Lat			R.Wrist.Lat
		X1	Y1	Z1	X2	Y2	Z2	X3	Y3	Z3	X4	Y4	Z4	X5	Y5	Z5	X6	Y6	Z6	X7	Y7	Z7	X8	Y8	Z8	X9	Y9	Z9	X10	Y10	Z10	X11	Y11	Z11	X12	Y12	Z12	X13	Y13	Z13	X14	Y14	Z14	X15	Y15	Z15	X16	Y16	Z16	X17	Y17	Z17	X18	Y18	Z18	X19	Y19	Z19	X20	Y20	Z20	X21	Y21	Z21	X22	Y22	Z22	X23	Y23	Z23	X24	Y24	Z24

257	1.024	0.035683767	-0.056574301	-0.12847908	0.32364583	0.089820409	0.0094457323	-0.085820129	-0.0068524616	-0.18495773	0.18790183	0.13177876	-0.01160352	-0.088624387	0.021566458	-0.10441323	0.24560629	0.15153803	-0.078126988	-0.15879613	-0.019570543	-0.14839097	0.15783024	0.11351422	-0.076443131	0.0073582343	0.37118022	-0.22600404	0.32366394	0.49500848	0.057368159	-6.3907061e-05	0.35410304	-0.10425004	0.36899253	0.51701377	-0.062879015	0.075242062	0.76301197	-0.29538631	0.064698366	0.80230083	0.084162598	0.14093951	0.86962714	-0.23295715	0.13434722	0.88686577	0.0081228377	-0.058339058	0.90012265	-0.11977842	0.11897375	1.3516181	-0.26686129	0.084102027	1.3542561	0.050528164	0.022104396	1.3820099	-0.12584098	0.092820262	1.0136859	-0.3674523	-0.060967478	1.042078	0.091772745	0.30786762	0.88512172	-0.36990414	-0.0052271776	0.82263899	0.18651103
258	1.028	0.035636494	-0.056564309	-0.12852609	0.34464634	0.089689734	0.0091276506	-0.085764222	-0.006787539	-0.18494942	0.2076678	0.12715748	-0.012382801	-0.088526496	0.021793161	-0.10445213	0.26491705	0.14889771	-0.078613288	-0.15886922	-0.019207269	-0.14817281	0.17838094	0.10811922	-0.077323183	0.0071529323	0.37121125	-0.22641931	0.33131702	0.49613955	0.056668796	-0.00065865739	0.35424825	-0.10468461	0.37560264	0.51870184	-0.063309425	0.078303065	0.76286996	-0.29543273	0.071240615	0.80269041	0.084336192	0.14457693	0.86927216	-0.23374576	0.14030392	0.88670298	0.0075956942	-0.052550144	0.89946991	-0.11868907	0.1243422	1.3511903	-0.26699621	0.089878086	1.3537493	0.050435232	0.027795399	1.3816632	-0.12579637	0.10108203	1.0133494	-0.36730864	-0.058191211	1.0431421	0.091526041	0.3179728	0.88736782	-0.36816904	-0.0044721551	0.82347245	0.18724787
259	1.032	0.035572948	-0.05657831	-0.12852703	0.36554773	0.08966574	0.008705857	-0.085775459	-0.0067165498	-0.18491666	0.22750175	0.12276093	-0.013196103	-0.088396158	0.02200823	-0.10449528	0.28416286	0.14640135	-0.079089359	-0.15897054	-0.018837899	-0.14791523	0.19896882	0.10292001	-0.078153932	0.0071407277	0.37117859	-0.22682961	0.33875983	0.49696104	0.055980163	-0.0012287285	0.3542795	-0.10500217	0.38214331	0.52001326	-0.063726432	0.081347464	0.76262253	-0.29547665	0.078118233	0.80308351	0.084688964	0.14821315	0.86881128	-0.23448322	0.14628924	0.88642708	0.0070849515	-0.046233381	0.89847688	-0.11791687	0.12970803	1.3506558	-0.26715027	0.095637234	1.353116	0.050333572	0.033473407	1.381212	-0.12575493	0.10950555	1.0130607	-0.36706608	-0.055403151	1.0441116	0.091273427	0.32802084	0.88955971	-0.3664304	-0.0038213185	0.82422476	0.18788086
260	1.036	0.035501878	-0.056596975	-0.12853484	0.38633243	0.08975878	0.008180817	-0.085905867	-0.0066083633	-0.18485014	0.24727869	0.11865256	-0.014003016	-0.088283467	0.022208797	-0.10447772	0.30330527	0.14406577	-0.079551609	-0.15905971	-0.018518222	-0.1476391	0.21955026	0.09793708	-0.078956459	0.0072710844	0.37107883	-0.2272006	0.3459924	0.49745338	0.055275574	-0.0017131752	0.35423071	-0.10525227	0.38863915	0.52094933	-0.064137302	0.0843268	0.76223888	-0.29558962	0.085151614	0.80340382	0.08512989	0.15183539	0.86823355	-0.23520148	0.15229606	0.88603709	0.006578618	-0.039479065	0.89722656	-0.11745073	0.13506659	1.3500107	-0.26733245	0.10139408	1.3523597	0.050222613	0.039134719	1.3806528	-0.12571823	0.11800888	1.0127678	-0.36706697	-0.052598221	1.0449835	0.091007592	0.33801541	0.89170219	-0.36468735	-0.0032318503	0.82489519	0.18842266
261	1.04	0.035431262	-0.056620699	-0.12855986	0.40698028	0.0899812	0.0075551281	-0.086135617	-0.0064746462	-0.18474105	0.26693855	0.11485796	-0.01477836	-0.088179246	0.022398389	-0.10437087	0.32232136	0.14188826	-0.080009551	-0.15913118	-0.018254503	-0.14734285	0.24007141	0.093197036	-0.079715865	0.0074663321	0.37093162	-0.22747684	0.353045	0.49761697	0.054542418	-0.0020449312	0.3541296	-0.10545404	0.39509881	0.52151589	-0.064554273	0.087274041	0.7617143	-0.2957406	0.09229664	0.80361375	0.085633029	0.15543124	0.86752861	-0.23592448	0.15831534	0.88553865	0.0060770727	-0.032782168	0.89593604	-0.11697819	0.14041627	1.3492525	-0.26754402	0.10715936	1.3514858	0.050102409	0.044774489	1.379978	-0.12569916	0.12645357	1.0123371	-0.36750883	-0.049778694	1.0457557	0.090722998	0.3479657	0.8937993	-0.36293297	-0.0026264341	0.82549312	0.1889138
262	1.044	0.035369949	-0.056661114	-0.12857456	0.42746491	0.09034698	0.0068309837	-0.086401758	-0.0063348677	-0.18458341	0.28647772	0.11133218	-0.015494629	-0.088048846	0.022581429	-0.10416959	0.34119301	0.13985548	-0.080468122	-0.15919845	-0.018024513	-0.14701406	0.26048085	0.088720618	-0.080396263	0.0076815473	0.37076658	-0.22762781	0.35997205	0.49747365	0.053785145	-0.0021696506	0.35399715	-0.1056036	0.4015308	0.52172607	-0.064990455	0.090221498	0.76105361	-0.29585378	0.099653955	0.80373067	0.086246159	0.15903821	0.86671263	-0.23662656	0.16435134	0.8849421	0.0055887509	-0.026920602	0.89496164	-0.11593667	0.14576425	1.348384	-0.26777983	0.11292875	1.3504984	0.049972547	0.050394071	1.3791837	-0.12571002	0.1347699	1.0115917	-0.36831151	-0.046941638	1.0464274	0.09041974	0.35787406	0.89585196	-0.36116364	-0.0019582865	0.82602751	0.18938374
263	1.048	0.035331448	-0.056729053	-0.12853193	0.44776168	0.090859623	0.0060054417	-0.08665456	-0.0062003134	-0.18435708	0.30593722	0.10795796	-0.01612705	-0.087885001	0.022748567	-0.1038983	0.35990003	0.13796408	-0.080917882	-0.15927385	-0.017811857	-0.14664789	0.28073443	0.084503048	-0.080949635	0.0079294691	0.3706021	-0.22766819	0.36681626	0.49704954	0.053003737	-0.0020525263	0.35384791	-0.10569117	0.40795362	0.52159814	-0.065460504	0.093155893	0.76025979	-0.29585082	0.10716005	0.80374414	0.086929295	0.16275014	0.86583139	-0.23722502	0.17041864	0.88425667	0.0051190038	-0.02254067	0.89461766	-0.11385131	0.15111842	1.3474123	-0.26804069	0.118692	1.3494003	0.049835876	0.056001785	1.3782739	-0.12574902	0.14300438	1.0104772	-0.36926487	-0.044073288	1.0470012	0.09011812	0.36774318	0.89786595	-0.35937553	-0.0012105146	0.82650116	0.18984222
264	1.052	0.035325208	-0.056817644	-0.12840033	0.46785517	0.091490089	0.0050652311	-0.086881614	-0.0060836596	-0.18405754	0.32538609	0.10461271	-0.01667697	-0.087718103	0.022873201	-0.10361957	0.37841606	0.13621925	-0.081344629	-0.1593639	-0.017617958	-0.1462484	0.30079313	0.080510804	-0.081327532	0.0082717295	0.37043024	-0.22764769	0.37357848	0.49635288	0.052189237	-0.0016790814	0.35368339	-0.10572016	0.41439155	0.52115122	-0.065981283	0.096024276	0.75933122	-0.29566216	0.11446375	0.8035719	0.087487312	0.1666075	0.86490725	-0.23766641	0.17652673	0.88348734	0.0046641224	-0.01940103	0.89478817	-0.11092531	0.1564783	1.3463457	-0.2683356	0.12444586	1.3481943	0.049692124	0.061605039	1.3772558	-0.12580295	0.15125971	1.0091514	-0.37021442	-0.04114662	1.0474871	0.089872931	0.37758136	0.89985336	-0.35756203	-0.00038221456	0.82691348	0.19028649
265	1.056	0.03533485	-0.056903039	-0.12820988	0.48772993	0.09218556	0.0039988163	-0.087094317	-0.0060064317	-0.1837198	0.34486993	0.10124882	-0.017160655	-0.087582347	0.022926943	-0.10339798	0.39670968	0.13462352	-0.0817418	-0.15947008	-0.017457683	-0.14581992	0.32062581	0.076708704	-0.081518765	0.0087898957	0.37021733	-0.22762641	0.38023813	0.49537281	0.051342879	-0.0010487432	0.35348705	-0.10571245	0.42086168	0.52040239	-0.066566924	0.098788547	0.75827013	-0.29525841	0.12125744	0.80313365	0.08774903	0.17054396	0.86391058	-0.23798538	0.18267581	0.88263727	0.0042152478	-0.016253449	0.89485713	-0.1080972	0.16184228	1.3451902	-0.26866891	0.13019376	1.3468839	0.04953165	0.067205343	1.3761345	-0.12585985	0.15960376	1.0078195	-0.37111542	-0.038129572	1.0478988	0.089750111	0.38738967	0.90181986	-0.35571961	0.00052495195	0.8272649	0.19071261
266	1.06	0.035312845	-0.056971673	-0.12805668	0.5073569	0.092911877	0.0028190486	-0.087304369	-0.005994994	-0.18337482	0.36432198	0.097942973	-0.017573739	-0.087493642	0.022901192	-0.10325055	0.41474772	0.13317209	-0.08211321	-0.15958985	-0.017347047	-0.14536714	0.34020775	0.073106149	-0.081583798	0.0095361962	0.3699265	-0.22763928	0.3868009	0.49410117	0.050480022	-0.00015971445	0.35323311	-0.10568937	0.42735513	0.51936427	-0.067219729	0.10151389	0.75710345	-0.29472954	0.12759934	0.80243619	0.087742157	0.17447609	0.86280148	-0.23825011	0.18886241	0.88171113	0.0037665944	-0.012061726	0.89430009	-0.10607799	0.16721583	1.3439429	-0.26903437	0.1359395	1.3454745	0.049344705	0.072800083	1.3749112	-0.12591751	0.16803831	1.0065514	-0.37198675	-0.035016811	1.0482381	0.089747725	0.39715318	0.90375824	-0.3538535	0.0015136791	0.82755721	0.19112147
267	1.064	0.035214568	-0.057033741	-0.12802978	0.52670024	0.093663351	0.0015531381	-0.087513521	-0.0060672884	-0.18301567	0.38354018	0.094873075	-0.017883908	-0.087460103	0.022813232	-0.10314243	0.43249617	0.13185511	-0.082467183	-0.15971842	-0.017290418	-0.14490188	0.35950631	0.069766693	-0.081619542	0.010507611	0.36954448	-0.22767485	0.39330549	0.49254832	0.049613735	0.00099809738	0.35290276	-0.1056522	0.43383408	0.51804499	-0.067928709	0.10437429	0.75588402	-0.29428788	0.13379713	0.80155433	0.087628978	0.17837407	0.8615688	-0.2384972	0.195081	0.88071389	0.0033151379	-0.0070058208	0.89318552	-0.10460932	0.17260835	1.3425929	-0.26942269	0.14168366	1.3439712	0.049131164	0.078386217	1.3735852	-0.12598336	0.17653272	1.0053023	-0.37285634	-0.031847954	1.048486	0.089753783	0.40685321	0.90565856	-0.35197218	0.0025849455	0.82779104	0.19151523
